<svg width="54" height="44" viewBox="0 0 54 44" fill="none" xmlns="http://www.w3.org/2000/svg">
<g id="LOGO">
<path id="Vector" d="M3 13.2146C16.5 18.5015 21.8831 9.68463 22.6828 6.1053M22.6828 6.1053C24 0.499939 23.3252 3.72916 22.6828 6.1053ZM22.6828 6.1053C22.4898 6.8192 22.2563 7.80827 21.998 9.12719C21.0975 13.7256 16.3627 30.1604 21.6362 36.4194C27.0516 44.4078 40.8861 39.8842 45.9727 38.1558M45.9727 38.1558C50.8945 36.4834 52.472 27.3171 49.4961 17.6823C46.5201 8.04756 40.1177 1.59285 35.1958 3.26531C30.2739 4.93776 28.6964 14.1041 31.6723 23.7388C34.6483 33.3736 41.0508 39.8283 45.9727 38.1558Z" stroke="black" stroke-width="5" stroke-linecap="round"/>
</g>
</svg>
