<svg xmlns="http://www.w3.org/2000/svg" width="41" height="65" viewBox="0 0 41 65" fill="none">
  <path d="M9.96932 46.5479L8.80314 49.4922L7.35909 52.2602L6.09056 54.4414C5.9964 54.6033 5.98758 54.8011 6.06696 54.9706L7.03187 57.0314L8.87051 56.7672L11.704 55.3864L15.1381 51.6474L17.8549 48.1917L19.6929 45.1508L15.6921 44.6798L12.348 44.2587L11.1149 41.9475L11.6548 39.4177L14.3871 37.0777L18.261 35.1507L22.1148 33.3348L28.494 30.2545L30.4249 35.675L32.4316 41.3731L34.2717 47.4197L35.4296 51.9776L35.3343 54.8402L32.9407 58.0331L29.4755 58.5309L26.4389 55.2167L25.1392 49.1646L21.9933 53.9081L18.2161 59.0307L15.4737 61.3L10.7512 63.6014L5.62425 64.338L2.17876 62.4529L0.61222 59.8291L0 55.5534L2.11509 49.4074L5.15979 43.9572L9.00899 44.1254L9.96932 46.5479Z" fill="#1F1F28"/>
  <path d="M29.6612 17.572L30.9617 14.6843L32.5316 11.9856L33.8992 9.86497C34.0007 9.70755 34.0186 9.51044 33.9471 9.33743L33.0782 7.23435L31.2293 7.41369L28.3354 8.66276L24.7329 12.24L21.8599 15.5672L19.8839 18.5205L23.8587 19.175L27.1797 19.7494L28.3051 22.1149L27.6493 24.6173L24.8123 26.8292L20.8538 28.576L16.9206 30.2128L10.4066 32.9966L8.72733 27.4929L6.98514 21.7084L5.42543 15.5833L4.47872 10.9769L4.70572 8.1216L7.24373 5.0421L10.728 4.70412L13.6088 8.15459L14.6283 14.2603L17.9892 9.66637L21.9982 4.72268L24.842 2.58186L29.6653 0.500081L34.8207 0L38.1756 2.04163L39.6196 4.73485L40.0343 9.03424L37.6385 15.0767L34.3462 20.3812L30.509 20.0362L29.6612 17.572Z" fill="#1F1F28"/>
</svg>