<svg xmlns="http://www.w3.org/2000/svg" width="58" height="46" viewBox="0 0 58 46" fill="none">
  <path d="M23.533 5.38345L36.1259 5.75734C36.3441 5.76381 36.5623 5.74626 36.7766 5.70499L48.7367 3.40188C50.3497 3.09127 51.9091 4.14707 52.2197 5.76007L53.3195 11.4715L55.0288 20.3477C55.0557 20.4876 55.0726 20.6292 55.0792 20.7714L55.6795 33.6287C55.7484 35.1053 54.7224 36.4085 53.2708 36.688L41.2966 38.9939L29.8537 39.9017L16.653 39.9067C16.4647 39.9068 16.2767 39.9248 16.0918 39.9604L9.08836 41.309C7.47536 41.6196 5.91596 40.5638 5.60535 38.9508L3.95874 30.3999L1.8801 19.6055C1.83707 19.3821 1.81983 19.1544 1.82872 18.9269L2.10826 11.7766C2.16226 10.3955 3.16059 9.23354 4.51784 8.97218L10.2021 7.87758L22.8823 5.4358C23.0966 5.39453 23.3148 5.37697 23.533 5.38345Z" fill="#1F1F28"/>
</svg>