<svg xmlns="http://www.w3.org/2000/svg" width="50" height="48" viewBox="0 0 50 48" fill="none">
  <path d="M15.5765 38.2257L11.8376 39.3871L5.47721 37.108L4.4669 32.1384L6.64077 26.0719L10.8701 22.0584L0 13.819L0.501987 8.33817L6.27013 4.48116L19.462 9.20836L25.1316 2.28822L30.8693 0L35.8162 1.7727L37.2937 9.14761L37.3541 14.1717L44.0678 16.5775L49.0261 19.8023L49.5006 25.8963L45.3472 30.0687L40.1531 30.8403L34.2028 31.8675L35.3803 36.3704L36.516 40.99L35.0111 45.1899L29.9536 47.0636L24.794 44.0299L21.9369 40.5049L19.1369 36.0788L15.5765 38.2257Z" fill="#1F1F28"/>
</svg>