<svg xmlns="http://www.w3.org/2000/svg" width="52" height="67" viewBox="0 0 52 67" fill="none">
  <path d="M23.6288 9.3333L30.4724 8.63382L34.9216 9.82479L40.8158 13.5903L42.6122 20.0862L43.1079 34.1101L39.8041 50.4137L36.6828 55.0586L34.0649 56.193L27.8903 57.8365L18.151 55.8235L12.263 51.9909L8.58343 44.0269L8.91633 31.8483L10.8569 22.2717L16.5678 13.5086L23.6288 9.3333ZM40.3983 49.5295L40.3954 49.5338C40.3964 49.5323 40.3974 49.5309 40.3983 49.5295L40.3983 49.5295ZM33.6664 56.3657C33.6665 56.3657 33.6665 56.3657 33.6665 56.3656L33.6664 56.3657ZM17.0481 55.5956C17.0485 55.5957 17.049 55.5958 17.0494 55.5958L17.0481 55.5956ZM24.7291 8.68269C24.7286 8.68296 24.7282 8.68323 24.7277 8.6835L24.7291 8.68269Z" stroke="#1F1F28" stroke-width="17.102"/>
</svg>