<svg xmlns="http://www.w3.org/2000/svg" width="36" height="58" viewBox="0 0 36 58" fill="none">
  <path d="M0.823996 17.8051L1.66731 19.4646C2.45174 21.0082 4.03743 21.9662 5.75589 21.9345C7.37897 21.9047 8.86178 20.9958 9.63806 19.5551L11.4084 16.2694C12.5622 14.128 14.7156 12.7262 17.1222 12.5497L17.5194 12.5206C18.376 12.4577 19.2349 12.6011 20.0255 12.9389C21.9583 13.7645 23.245 15.6425 23.3295 17.7609L23.3421 18.077C23.4394 20.5149 22.0604 22.7696 19.8578 23.7744L13.5298 26.6609C12.2958 27.2237 11.2218 28.0914 10.407 29.1837L8.92768 31.1667C7.36839 33.257 6.89849 35.9758 7.66484 38.4736L8.45708 41.0558C8.76513 42.0598 9.26301 42.9937 9.92319 43.806L11.0204 45.156C12.7516 47.286 15.485 48.3084 18.1744 47.832L19.0257 47.6812C21.0266 47.3268 22.714 45.9716 23.507 44.0823L23.7712 43.4528C24.5049 41.7046 24.1853 39.6878 22.9483 38.2603C21.1672 36.2048 20.5589 33.7195 22.5939 31.916L23.8259 30.905L30.9854 25.8201C32.2187 24.9442 33.1843 23.7368 33.7726 22.3351L35.3607 18.5515C36.3687 16.1498 36.1763 13.407 34.8433 11.1753L32.4511 7.17023C31.9695 6.36394 31.3529 5.6484 30.6286 5.05552L27.9734 2.88207C27.1812 2.23356 26.274 1.7431 25.3001 1.43677L21.9018 0.367799C20.5189 -0.0671762 19.0451 -0.117328 17.6356 0.222627L12.5477 1.44976C11.8245 1.62418 11.1286 1.89882 10.4798 2.26587L5.31791 5.18605C4.34184 5.73823 3.49007 6.48948 2.81682 7.39198L1.70079 8.88803C0.857315 10.0187 0.320162 11.3517 0.142363 12.7554L0.0604478 13.4021C-0.131112 14.9145 0.13508 16.4495 0.823996 17.8051Z" fill="#1F1F28"/>
  <path d="M21.7212 47.834L18.0155 51.8002L18.5584 55.4502L20.8162 57.6016L23.5734 57.8706L26.7285 57.6388L29.4007 55.7148L29.6973 51.3161L27.9278 48.6795L25.2557 47.0838L21.7212 47.834Z" fill="#1F1F28"/>
</svg>