<svg xmlns="http://www.w3.org/2000/svg" width="57" height="57" viewBox="0 0 57 57" fill="none">
  <path d="M23.4759 56.0471L23.1985 55.9549C22.6076 55.7585 22.0426 55.4981 21.5149 55.179L21.3013 55.0498C20.2826 54.4337 19.357 53.6308 18.9702 52.547C18.6592 51.6755 18.5214 50.7556 18.5695 49.8332L18.7734 45.9239L19.2726 42.7039C19.7301 39.753 17.7494 36.9151 14.6515 36.0827L8.44249 34.4416C7.9557 34.313 7.48245 34.1419 7.02908 33.9307L4.63853 32.817C2.26487 31.7112 0.615442 29.5936 0.232041 27.1598L0.0586909 26.0594C-0.1244 24.8971 0.143706 24.9761 0.547007 23.8709L1.82062 20.3806C2.06842 19.7015 2.42625 19.055 2.87386 18.4732C4.2512 16.6829 6.44016 15.5507 8.81704 15.4193L10.3871 15.3325C11.195 15.2878 12.0073 15.3578 12.7961 15.5402L17.4961 16.6267C19.3967 17.066 22.3317 16.22 22.7673 14.4564L23.4896 10.4414L24.8618 6.26739C25.0542 5.68218 25.3242 5.1225 25.6658 4.60116L26.4629 3.38467C27.1754 2.29731 28.181 1.40401 29.3819 0.79164L30.0851 0.433077C31.2763 -0.174336 31.3427 0.029604 32.7095 0.0455903L34.5847 0.125975C35.0492 0.145887 35.521 0.14667 35.9649 0.277698C36.3511 0.391716 36.821 0.565469 37.2516 0.720173C37.9846 0.983499 38.7462 1.20396 39.4691 1.49105L39.6809 1.57515C41.2478 2.19739 42.5058 3.36032 43.1996 4.82794C43.347 5.13967 43.4736 5.46105 43.5415 5.79643C43.6967 6.56237 43.7219 7.34473 43.6161 8.11484C43.5785 8.38903 43.5359 8.66089 43.5121 8.93647C43.41 10.1213 43.1079 13.5147 42.9194 14.4606C42.7588 15.2659 42.7362 16.7192 42.7371 17.5213C42.7375 17.9015 42.7136 18.2801 42.6932 18.6598C42.6362 19.7221 42.6925 21.9358 44.1022 22.31L47.1585 23.1212L52.4829 24.2649C54.5702 24.7132 56.2328 26.2004 56.7967 28.1234C57.0271 28.9092 57.0622 29.7309 56.8993 30.526L55.5908 36.8943L54.7462 37.9785C53.5618 39.4987 51.6763 40.3867 49.6803 40.3643C49.101 40.3578 48.5233 40.2927 47.9574 40.1701L42.6156 38.9525C41.8591 38.7887 39.9658 38.7168 39.2975 39.0715C38.4698 39.5107 38.4609 41.0729 38.3413 41.9561L37.8764 45.387L37.6724 49.1486L37.3847 51.8602C37.2706 52.9354 36.9183 53.9758 36.3507 54.9135L36.2006 55.1615L34.1136 56.4983L32.4268 56.8347C31.5826 57.003 30.7155 57.0431 29.8579 56.9535L27.701 56.7281L24.865 56.3829C24.3926 56.3097 23.9277 56.1973 23.4759 56.0471Z" fill="#1F1F28"/>
</svg>